<svg width="14" height="16" viewBox="0 0 14 16" fill="none" xmlns="http://www.w3.org/2000/svg">
<path d="M12.3335 2.00008H11.6668V1.33341C11.6668 0.966748 11.3668 0.666748 11.0002 0.666748C10.6335 0.666748 10.3335 0.966748 10.3335 1.33341V2.00008H3.66683V1.33341C3.66683 0.966748 3.36683 0.666748 3.00016 0.666748C2.6335 0.666748 2.3335 0.966748 2.3335 1.33341V2.00008H1.66683C0.933496 2.00008 0.333496 2.60008 0.333496 3.33341V14.0001C0.333496 14.7334 0.933496 15.3334 1.66683 15.3334H12.3335C13.0668 15.3334 13.6668 14.7334 13.6668 14.0001V3.33341C13.6668 2.60008 13.0668 2.00008 12.3335 2.00008ZM11.6668 14.0001H2.3335C1.96683 14.0001 1.66683 13.7001 1.66683 13.3334V5.33341H12.3335V13.3334C12.3335 13.7001 12.0335 14.0001 11.6668 14.0001Z" fill="white"/>
</svg>
