<svg width="16" height="16" viewBox="0 0 16 16" fill="none" xmlns="http://www.w3.org/2000/svg">
<path d="M7.99984 5.99984C8.3665 5.99984 8.6665 5.69984 8.6665 5.33317V3.99984H9.99984C10.3665 3.99984 10.6665 3.69984 10.6665 3.33317C10.6665 2.9665 10.3665 2.6665 9.99984 2.6665H8.6665V1.33317C8.6665 0.966504 8.3665 0.666504 7.99984 0.666504C7.63317 0.666504 7.33317 0.966504 7.33317 1.33317V2.6665H5.99984C5.63317 2.6665 5.33317 2.9665 5.33317 3.33317C5.33317 3.69984 5.63317 3.99984 5.99984 3.99984H7.33317V5.33317C7.33317 5.69984 7.63317 5.99984 7.99984 5.99984ZM4.6665 11.9998C3.93317 11.9998 3.33984 12.5998 3.33984 13.3332C3.33984 14.0665 3.93317 14.6665 4.6665 14.6665C5.39984 14.6665 5.99984 14.0665 5.99984 13.3332C5.99984 12.5998 5.39984 11.9998 4.6665 11.9998ZM11.3332 11.9998C10.5998 11.9998 10.0065 12.5998 10.0065 13.3332C10.0065 14.0665 10.5998 14.6665 11.3332 14.6665C12.0665 14.6665 12.6665 14.0665 12.6665 13.3332C12.6665 12.5998 12.0665 11.9998 11.3332 11.9998ZM5.39984 8.6665H10.3665C10.8665 8.6665 11.3065 8.39317 11.5332 7.97984L13.6932 3.8865C13.7743 3.73229 13.7918 3.55244 13.742 3.38547C13.6921 3.21851 13.5789 3.07769 13.4265 2.99317C13.3492 2.95083 13.2642 2.9243 13.1766 2.91514C13.0889 2.90598 13.0003 2.91436 12.9159 2.9398C12.8315 2.96525 12.753 3.00724 12.685 3.06333C12.617 3.11942 12.5609 3.18849 12.5198 3.2665L10.3665 7.33317H5.6865L2.8465 1.33317H1.33317C0.966504 1.33317 0.666504 1.63317 0.666504 1.99984C0.666504 2.3665 0.966504 2.6665 1.33317 2.6665H1.99984L4.39984 7.7265L3.49984 9.35317C3.01317 10.2465 3.65317 11.3332 4.6665 11.3332H11.9998C12.3665 11.3332 12.6665 11.0332 12.6665 10.6665C12.6665 10.2998 12.3665 9.99984 11.9998 9.99984H4.6665L5.39984 8.6665Z" fill="#0C1E11"/>
</svg>
