<svg width="14" height="12" viewBox="0 0 14 12" fill="none" xmlns="http://www.w3.org/2000/svg">
<path d="M12.3335 0.666626H1.66683C0.933496 0.666626 0.340163 1.26663 0.340163 1.99996L0.333496 9.99996C0.333496 10.7333 0.933496 11.3333 1.66683 11.3333H12.3335C13.0668 11.3333 13.6668 10.7333 13.6668 9.99996V1.99996C13.6668 1.26663 13.0668 0.666626 12.3335 0.666626ZM11.6668 9.99996H2.3335C1.96683 9.99996 1.66683 9.69996 1.66683 9.33329V3.33329L6.2935 6.22663C6.72683 6.49996 7.2735 6.49996 7.70683 6.22663L12.3335 3.33329V9.33329C12.3335 9.69996 12.0335 9.99996 11.6668 9.99996ZM7.00016 5.33329L1.66683 1.99996H12.3335L7.00016 5.33329Z" fill="#0C1E11"/>
</svg>
