<svg width="17" height="11" viewBox="0 0 17 11" fill="none" xmlns="http://www.w3.org/2000/svg">
<path d="M1.64205 10.9917C1.19049 10.9917 0.803922 10.8573 0.482353 10.5884C0.160784 10.3195 0 9.99634 0 9.6188V1.38144C0 1.00389 0.160784 0.680691 0.482353 0.411832C0.803922 0.142974 1.19049 0.00854492 1.64205 0.00854492H14.7785C15.23 0.00854492 15.6166 0.142974 15.9382 0.411832C16.2597 0.680691 16.4205 1.00389 16.4205 1.38144V9.6188C16.4205 9.99634 16.2597 10.3195 15.9382 10.5884C15.6166 10.8573 15.23 10.9917 14.7785 10.9917H1.64205ZM8.21026 6.18656L1.64205 2.75433V9.6188H14.7785V2.75433L8.21026 6.18656ZM8.21026 4.81367L14.7785 1.38144H1.64205L8.21026 4.81367ZM1.64205 2.75433V1.38144V9.6188V2.75433Z" fill="#F7A902"/>
</svg>
