<svg width="35" height="36" viewBox="0 0 35 36" fill="none" xmlns="http://www.w3.org/2000/svg">
<path d="M17.5 0.695312C27.0581 0.695312 34.8047 8.44185 34.8047 18C34.8047 27.5581 27.0581 35.3047 17.5 35.3047C7.94185 35.3047 0.195312 27.5581 0.195312 18C0.195312 8.44185 7.94185 0.695312 17.5 0.695312ZM18.4775 9.04785C17.7514 9.04785 17.1665 9.18667 16.6816 9.43457C16.197 9.68238 15.8234 10.0337 15.5127 10.4443L15.5117 10.4453C15.2037 10.8549 15.052 11.3771 14.9746 11.8799C14.897 12.3847 14.8916 12.8898 14.8916 13.2764V14.8379H13.0801V17.8467H14.8916V26.9385H18.6729V17.8467H21.3447L21.3584 17.666L21.5566 15.0479L21.5732 14.8379H18.6729V12.9893C18.6729 12.7077 18.7926 12.5302 18.9824 12.4131C19.1845 12.2885 19.4768 12.2275 19.8105 12.2275C20.1446 12.2275 20.4947 12.2795 20.7646 12.333C20.8988 12.3596 21.0119 12.3864 21.0908 12.4062C21.1301 12.4161 21.1609 12.424 21.1816 12.4297C21.192 12.4325 21.1999 12.4351 21.2051 12.4365C21.2076 12.4372 21.2098 12.4381 21.2109 12.4385H21.2119L21.4229 12.5L21.459 12.2832L21.9102 9.60352L21.9375 9.44043L21.7803 9.38672L21.7793 9.38574C21.7785 9.38548 21.7775 9.38515 21.7764 9.38477C21.7738 9.38392 21.77 9.38324 21.7656 9.38184C21.7567 9.37901 21.744 9.37495 21.7275 9.37012C21.6941 9.36032 21.6446 9.34614 21.5791 9.33008C21.4482 9.29797 21.2519 9.2557 20.9844 9.21387C20.449 9.13016 19.6285 9.04785 18.4775 9.04785Z" fill="#FFF9F0" stroke="#FFF9F0" stroke-width="0.390625"/>
</svg>
