<svg width="35" height="35" viewBox="0 0 35 35" fill="none" xmlns="http://www.w3.org/2000/svg">
<path d="M17.5 0.195312C27.0581 0.195312 34.8047 7.94185 34.8047 17.5C34.8047 27.0581 27.0581 34.8047 17.5 34.8047C7.94185 34.8047 0.195312 27.0581 0.195312 17.5C0.195312 7.94185 7.94185 0.195312 17.5 0.195312ZM18.4775 8.54785C17.7514 8.54785 17.1665 8.68667 16.6816 8.93457C16.197 9.18238 15.8234 9.5337 15.5127 9.94434L15.5117 9.94531C15.2037 10.3549 15.052 10.8771 14.9746 11.3799C14.897 11.8847 14.8916 12.3898 14.8916 12.7764V14.3379H13.0801V17.3467H14.8916V26.4385H18.6729V17.3467H21.3447L21.3584 17.166L21.5566 14.5479L21.5732 14.3379H18.6729V12.4893C18.6729 12.2077 18.7926 12.0302 18.9824 11.9131C19.1845 11.7885 19.4768 11.7275 19.8105 11.7275C20.1446 11.7275 20.4947 11.7795 20.7646 11.833C20.8988 11.8596 21.0119 11.8864 21.0908 11.9062C21.1301 11.9161 21.1609 11.924 21.1816 11.9297C21.192 11.9325 21.1999 11.9351 21.2051 11.9365C21.2076 11.9372 21.2098 11.9381 21.2109 11.9385H21.2119L21.4229 12L21.459 11.7832L21.9102 9.10352L21.9375 8.94043L21.7803 8.88672L21.7793 8.88574C21.7785 8.88548 21.7775 8.88515 21.7764 8.88477C21.7738 8.88392 21.77 8.88324 21.7656 8.88184C21.7567 8.87901 21.744 8.87495 21.7275 8.87012C21.6941 8.86032 21.6446 8.84614 21.5791 8.83008C21.4482 8.79797 21.2519 8.7557 20.9844 8.71387C20.449 8.63016 19.6285 8.54785 18.4775 8.54785Z" fill="#FFF9F0" stroke="#FFF9F0" stroke-width="0.390625"/>
</svg>
