<svg width="32" height="32" viewBox="0 0 32 32" fill="none" xmlns="http://www.w3.org/2000/svg">
<rect width="32" height="32" fill="#0D3117"/>
<path d="M15.9843 25.0868C15.4887 25.8244 14.4889 26.0206 13.7513 25.525C13.0137 25.0293 12.8175 24.0296 13.3131 23.2919L23.0645 8.77999C23.4245 8.24425 24.0698 7.97543 24.7036 8.09719C25.3375 8.21896 25.8373 8.70775 25.9732 9.33874L29.6535 26.4309C29.8405 27.2996 29.2879 28.1556 28.4191 28.3426C27.5504 28.5297 26.6944 27.977 26.5074 27.1082L23.624 13.7174L15.9843 25.0868Z" fill="white"/>
<path d="M16.1421 6.67698C16.6438 5.94348 17.6452 5.75551 18.3787 6.25717C19.1122 6.75887 19.3002 7.76022 18.7985 8.49374L8.92799 22.9249C8.5636 23.4577 7.91609 23.7212 7.28325 23.5942C6.65041 23.4672 6.15467 22.9744 6.024 22.3423L2.48446 5.2204C2.30458 4.35014 2.86429 3.4988 3.73455 3.31889C4.60481 3.13902 5.45615 3.69872 5.63606 4.56899L8.4091 17.9831L16.1421 6.67698Z" fill="#F7A902"/>
</svg>
