<svg width="1032" height="1038" viewBox="0 0 1032 1038" fill="none" xmlns="http://www.w3.org/2000/svg">
<path d="M582.856 246.157C608.304 235.888 637.26 248.193 647.529 273.64C657.797 299.088 645.493 328.044 620.045 338.313L119.374 540.338C100.891 547.796 79.738 543.489 65.6445 529.395C51.551 515.302 47.2432 494.149 54.7013 475.666L256.727 -25.006C266.996 -50.4534 295.951 -62.7579 321.399 -52.4894C346.847 -42.2202 359.151 -13.2646 348.883 12.1832L190.606 404.433L582.856 246.157Z" fill="#C2D4A0" fill-opacity="0.4"/>
<path d="M520.536 951.788C506.418 986.778 523.335 1026.59 558.326 1040.71C593.316 1054.83 633.13 1037.91 647.25 1002.92L849.276 502.251C859.53 476.837 853.607 447.751 834.228 428.372C814.849 408.994 785.765 403.072 760.351 413.327L259.68 615.352C224.689 629.472 207.772 669.284 221.89 704.274C236.01 739.265 275.824 756.185 310.814 742.066L662.405 600.195L520.536 951.788ZM572.271 1006.15C556.368 999.734 548.677 981.638 555.094 965.733L713.37 573.483C716.167 566.552 714.551 558.619 709.266 553.334C703.981 548.049 696.05 546.435 689.119 549.232L296.869 707.508C280.964 713.926 262.866 706.232 256.448 690.329C250.031 674.424 257.722 656.328 273.625 649.91L774.297 447.885C785.849 443.223 799.069 445.916 807.877 454.723C816.685 463.531 819.379 476.753 814.718 488.305L612.692 988.977C606.274 1004.88 588.177 1012.57 572.271 1006.15Z" fill="#C2D4A0" fill-opacity="0.4"/>
</svg>
