<svg width="37" height="36" viewBox="0 0 37 36" fill="none" xmlns="http://www.w3.org/2000/svg">
<path d="M18.5 21.0762C20.1953 21.0762 21.583 19.6953 21.583 17.9932C21.583 17.3232 21.3643 16.7012 21.002 16.1953C20.4414 15.4229 19.5323 14.9102 18.5069 14.9102C17.4815 14.9102 16.5723 15.416 16.0117 16.1953C15.6494 16.7012 15.4307 17.3232 15.4307 17.9932C15.4239 19.6953 16.8047 21.0762 18.5 21.0762Z" fill="#FFF9F0" stroke="#FFF9F0" stroke-width="0.390625"/>
<path d="M25.2266 14.2334V11.6494V11.2666H24.8438L22.2598 11.2734L22.2734 14.2402L25.2266 14.2334Z" fill="#FFF9F0" stroke="#FFF9F0" stroke-width="0.390625"/>
<path d="M23.2852 18C23.2852 20.6387 21.1387 22.7852 18.5 22.7852C15.8613 22.7852 13.7148 20.6387 13.7148 18C13.7148 17.3643 13.8447 16.7559 14.0703 16.2021H11.459V23.3662C11.459 24.2891 12.2109 25.041 13.1338 25.041H23.8662C24.7891 25.041 25.541 24.2891 25.541 23.3662V16.2021H22.9297C23.1621 16.7559 23.2852 17.3643 23.2852 18Z" fill="#FFF9F0" stroke="#FFF9F0" stroke-width="0.390625"/>
<path d="M18.5 0.5C8.83398 0.5 1 8.33398 1 18C1 27.666 8.83398 35.5 18.5 35.5C28.166 35.5 36 27.666 36 18C36 8.33398 28.166 0.5 18.5 0.5ZM27.25 16.2021V23.3662C27.25 25.2324 25.7324 26.75 23.8662 26.75H13.1338C11.2676 26.75 9.75 25.2324 9.75 23.3662V16.2021V12.627C9.75 10.7607 11.2676 9.24316 13.1338 9.24316H23.8662C25.7324 9.24316 27.25 10.7607 27.25 12.627V16.2021Z" fill="#FFF9F0" stroke="#FFF9F0" stroke-width="0.390625"/>
</svg>
