<svg width="36" height="36" viewBox="0 0 36 36" fill="none" xmlns="http://www.w3.org/2000/svg">
<path d="M17.6953 20.7715C19.3907 20.7715 20.7783 19.3906 20.7783 17.6885C20.7783 17.0186 20.5596 16.3965 20.1973 15.8906C19.6367 15.1182 18.7276 14.6055 17.7022 14.6055C16.6768 14.6055 15.7676 15.1113 15.2071 15.8906C14.8448 16.3965 14.626 17.0186 14.626 17.6885C14.6192 19.3906 16 20.7715 17.6953 20.7715Z" fill="#FFF9F0" stroke="#FFF9F0" stroke-width="0.390625"/>
<path d="M24.4219 13.9287V11.3447V10.9619H24.0391L21.4551 10.9688L21.4687 13.9355L24.4219 13.9287Z" fill="#FFF9F0" stroke="#FFF9F0" stroke-width="0.390625"/>
<path d="M22.4805 17.6953C22.4805 20.334 20.334 22.4805 17.6953 22.4805C15.0566 22.4805 12.9102 20.334 12.9102 17.6953C12.9102 17.0596 13.04 16.4512 13.2656 15.8975H10.6543V23.0615C10.6543 23.9844 11.4062 24.7363 12.3291 24.7363H23.0615C23.9844 24.7363 24.7363 23.9844 24.7363 23.0615V15.8975H22.125C22.3574 16.4512 22.4805 17.0596 22.4805 17.6953Z" fill="#FFF9F0" stroke="#FFF9F0" stroke-width="0.390625"/>
<path d="M17.6953 0.195312C8.0293 0.195312 0.195312 8.0293 0.195312 17.6953C0.195312 27.3613 8.0293 35.1953 17.6953 35.1953C27.3613 35.1953 35.1953 27.3613 35.1953 17.6953C35.1953 8.0293 27.3613 0.195312 17.6953 0.195312ZM26.4453 15.8975V23.0615C26.4453 24.9277 24.9277 26.4453 23.0615 26.4453H12.3291C10.4629 26.4453 8.94531 24.9277 8.94531 23.0615V15.8975V12.3223C8.94531 10.4561 10.4629 8.93848 12.3291 8.93848H23.0615C24.9277 8.93848 26.4453 10.4561 26.4453 12.3223V15.8975Z" fill="#FFF9F0" stroke="#FFF9F0" stroke-width="0.390625"/>
</svg>
