<svg width="174" height="50" viewBox="0 0 174 50" fill="none" xmlns="http://www.w3.org/2000/svg">
<path d="M29.2578 39.8271V21.9219L20.4559 39.2942C19.9314 40.3295 18.8693 40.982 17.7087 40.982C16.5481 40.982 15.486 40.3295 14.9614 39.2942L6.15954 21.9219V39.8271C6.15954 41.528 4.78068 42.9068 3.07977 42.9068C1.37886 42.9068 0 41.528 0 39.8271V9.02935L0.00281962 8.89627C0.061506 7.52752 1.02124 6.3546 2.36415 6.03379C3.75042 5.70265 5.18284 6.36602 5.82702 7.6374L17.7087 31.088L29.5904 7.6374C30.2345 6.36602 31.667 5.70265 33.0532 6.03379C34.4395 6.36496 35.4174 7.6041 35.4174 9.02935V39.8271C35.4174 41.528 34.0385 42.9068 32.3376 42.9068C30.6367 42.9068 29.2578 41.528 29.2578 39.8271Z" fill="white"/>
<path d="M105.963 7.32892C106.939 5.93608 108.859 5.59822 110.252 6.57437C111.645 7.55058 111.983 9.47113 111.007 10.864L91.8005 38.2673C91.0915 39.279 89.8465 39.7691 88.6381 39.5123C87.4297 39.2554 86.4917 38.3013 86.2555 37.0887L79.8557 4.24263C79.5304 2.57315 80.6202 0.956057 82.2897 0.630772C83.9592 0.305541 85.5763 1.39535 85.9016 3.06484L90.9155 28.798L105.963 7.32892Z" fill="white"/>
<path d="M126.611 45.7859C127.059 48.0814 129.282 49.5798 131.577 49.1326C133.873 48.6854 135.372 46.462 134.924 44.1664L128.525 11.3204C128.2 9.65309 126.91 8.3411 125.248 7.98793C123.587 7.63477 121.875 8.30876 120.9 9.69974L101.694 37.1031C100.352 39.0183 100.816 41.6589 102.731 43.0012C104.647 44.3434 107.287 43.8789 108.63 41.9638L122.117 22.7201L126.611 45.7859ZM131.136 46.8654C130.092 47.0687 129.082 46.3876 128.878 45.3442L123.865 19.6111C123.776 19.1563 123.424 18.7985 122.971 18.7022C122.518 18.6059 122.051 18.7897 121.785 19.1691L106.738 40.6382C106.128 41.5087 104.927 41.7197 104.057 41.1097C103.187 40.4995 102.975 39.2992 103.585 38.4287L122.792 11.0254C123.235 10.3931 124.013 10.0868 124.768 10.2473C125.523 10.4078 126.11 11.0041 126.257 11.762L132.657 44.6081C132.86 45.6515 132.179 46.6621 131.136 46.8654Z" fill="white"/>
<path d="M71.5685 24.4281C71.5685 17.6244 66.053 12.109 59.2494 12.109C52.4457 12.109 46.9303 17.6244 46.9303 24.4281C46.9303 31.2317 52.4457 36.7472 59.2494 36.7472C66.053 36.7472 71.5685 31.2317 71.5685 24.4281ZM77.728 24.4281C77.728 34.6336 69.4549 42.9067 59.2494 42.9067C49.0439 42.9067 40.7708 34.6336 40.7708 24.4281C40.7708 14.2226 49.0439 5.94946 59.2494 5.94946C69.4549 5.94946 77.728 14.2226 77.728 24.4281Z" fill="white"/>
<path d="M166.877 24.4281C166.877 17.6244 161.362 12.109 154.558 12.109C147.754 12.109 142.239 17.6244 142.239 24.4281C142.239 31.2317 147.754 36.7472 154.558 36.7472C156.878 36.7472 159.048 36.1055 160.901 34.9904L157.068 31.1574C155.865 29.9547 155.865 28.0047 157.068 26.802C158.271 25.5993 160.221 25.5993 161.423 26.802L165.221 30.6C166.274 28.7852 166.877 26.6771 166.877 24.4281ZM173.037 24.4281C173.037 28.3839 171.793 32.0491 169.676 35.055L170.663 36.0413C171.865 37.2441 171.865 39.194 170.663 40.3967C169.46 41.5994 167.51 41.5994 166.307 40.3967L165.344 39.4333C162.309 41.6189 158.584 42.9067 154.558 42.9067C144.353 42.9067 136.079 34.6336 136.079 24.4281C136.079 14.2226 144.353 5.94946 154.558 5.94946C164.763 5.94946 173.037 14.2226 173.037 24.4281Z" fill="white"/>
</svg>
