<svg width="15" height="17" viewBox="0 0 15 17" fill="none" xmlns="http://www.w3.org/2000/svg">
<path d="M13.3333 8.5C13.3333 6.76667 12.7674 5.2963 11.6354 4.08889C10.5035 2.88148 9.125 2.27778 7.5 2.27778V0.5C8.54167 0.5 9.51736 0.711111 10.4271 1.13333C11.3368 1.55556 12.1285 2.12593 12.8021 2.84444C13.4757 3.56296 14.0104 4.40741 14.4062 5.37778C14.8021 6.34815 15 7.38889 15 8.5H13.3333ZM10 8.5C10 7.75926 9.75694 7.12963 9.27083 6.61111C8.78472 6.09259 8.19444 5.83333 7.5 5.83333V4.05556C8.65278 4.05556 9.63542 4.48889 10.4479 5.35556C11.2604 6.22222 11.6667 7.27037 11.6667 8.5H10ZM14.125 16.5C12.3889 16.5 10.6736 16.0963 8.97917 15.2889C7.28472 14.4815 5.74306 13.337 4.35417 11.8556C2.96528 10.3741 1.89236 8.72963 1.13542 6.92222C0.378472 5.11481 0 3.28519 0 1.43333C0 1.16667 0.0833333 0.944444 0.25 0.766667C0.416667 0.588889 0.625 0.5 0.875 0.5H4.25C4.44444 0.5 4.61806 0.57037 4.77083 0.711111C4.92361 0.851852 5.01389 1.01852 5.04167 1.21111L5.58333 4.32222C5.61111 4.55926 5.60417 4.75926 5.5625 4.92222C5.52083 5.08519 5.44444 5.22593 5.33333 5.34444L3.3125 7.52222C3.59028 8.07037 3.92014 8.6 4.30208 9.11111C4.68403 9.62222 5.10417 10.1148 5.5625 10.5889C5.99306 11.0481 6.44444 11.4741 6.91667 11.8667C7.38889 12.2593 7.88889 12.6185 8.41667 12.9444L10.375 10.8556C10.5 10.7222 10.6632 10.6222 10.8646 10.5556C11.066 10.4889 11.2639 10.4704 11.4583 10.5L14.3333 11.1222C14.5278 11.1815 14.6875 11.2889 14.8125 11.4444C14.9375 11.6 15 11.7741 15 11.9667V15.5667C15 15.8333 14.9167 16.0556 14.75 16.2333C14.5833 16.4111 14.375 16.5 14.125 16.5ZM2.52083 5.83333L3.89583 4.36667L3.54167 2.27778H1.6875C1.75694 2.88519 1.85417 3.48519 1.97917 4.07778C2.10417 4.67037 2.28472 5.25556 2.52083 5.83333ZM9.97917 13.7889C10.5208 14.0407 11.0729 14.2407 11.6354 14.3889C12.1979 14.537 12.7639 14.6333 13.3333 14.6778V12.7222L11.375 12.3L9.97917 13.7889Z" fill="#F7A902"/>
</svg>
