<svg width="23" height="14" viewBox="0 0 23 14" fill="none" xmlns="http://www.w3.org/2000/svg">
<path d="M3.42489 0.584042L11.1849 8.34404L18.9449 0.584042C19.1301 0.398878 19.3499 0.251999 19.5918 0.151789C19.8337 0.0515788 20.093 1.95102e-09 20.3549 0C20.6167 -1.95101e-09 20.876 0.0515788 21.118 0.151789C21.3599 0.251999 21.5797 0.398878 21.7649 0.584042C21.9501 0.769206 22.0969 0.989027 22.1971 1.23096C22.2974 1.47288 22.3489 1.73218 22.3489 1.99404C22.3489 2.2559 22.2974 2.5152 22.1971 2.75713C22.0969 2.99906 21.9501 3.21888 21.7649 3.40404L12.5849 12.584C12.3999 12.7695 12.1801 12.9165 11.9381 13.0169C11.6962 13.1173 11.4368 13.1689 11.1749 13.1689C10.913 13.1689 10.6536 13.1173 10.4116 13.0169C10.1697 12.9165 9.94992 12.7695 9.76489 12.584L0.584888 3.40404C0.39948 3.21901 0.252385 2.99924 0.152022 2.75729C0.0516594 2.51534 0 2.25598 0 1.99404C0 1.7321 0.0516594 1.47274 0.152022 1.23079C0.252385 0.988846 0.39948 0.769069 0.584888 0.584042C1.36489 -0.175958 2.64489 -0.195958 3.42489 0.584042Z" fill="white"/>
</svg>
