<svg width="37" height="36" viewBox="0 0 37 36" fill="none" xmlns="http://www.w3.org/2000/svg">
<path d="M16.1689 21.3704L21.8975 18.0071L16.1689 14.6438V21.3704Z" fill="#FFF9F0" stroke="#FFF9F0" stroke-width="0.390625"/>
<path d="M18.5 0.5C8.83398 0.5 1 8.33398 1 18C1 27.666 8.83398 35.5 18.5 35.5C28.166 35.5 36 27.666 36 18C36 8.33398 28.166 0.5 18.5 0.5ZM27.25 21.1309C27.25 24.1455 24.2354 24.1455 24.2354 24.1455H12.7646C9.75 24.1455 9.75 21.1309 9.75 21.1309V14.876C9.75 11.8613 12.7646 11.8613 12.7646 11.8613H24.2354C27.25 11.8613 27.25 14.876 27.25 14.876V21.1309Z" fill="#FFF9F0" stroke="#FFF9F0" stroke-width="0.390625"/>
</svg>
