<svg width="36" height="36" viewBox="0 0 36 36" fill="none" xmlns="http://www.w3.org/2000/svg">
<path d="M15.3643 21.0654L21.0928 17.7021L15.3643 14.3389V21.0654Z" fill="#FFF9F0" stroke="#FFF9F0" stroke-width="0.390625"/>
<path d="M17.6953 0.195312C8.0293 0.195312 0.195312 8.0293 0.195312 17.6953C0.195312 27.3613 8.0293 35.1953 17.6953 35.1953C27.3613 35.1953 35.1953 27.3613 35.1953 17.6953C35.1953 8.0293 27.3613 0.195312 17.6953 0.195312ZM26.4453 20.8262C26.4453 23.8408 23.4307 23.8408 23.4307 23.8408H11.96C8.94531 23.8408 8.94531 20.8262 8.94531 20.8262V14.5713C8.94531 11.5566 11.96 11.5566 11.96 11.5566H23.4307C26.4453 11.5566 26.4453 14.5713 26.4453 14.5713V20.8262Z" fill="#FFF9F0" stroke="#FFF9F0" stroke-width="0.390625"/>
</svg>
